<svg width="24" height="19" viewBox="0 0 24 19" fill="none" xmlns="http://www.w3.org/2000/svg">
    <path d="M16.5088 13.8447C16.6563 13.3379 16.5996 12.874 16.3535 12.5293C16.1289 12.2129 15.749 12.0303 15.292 12.0088L6.6328 11.8965C6.60636 11.8969 6.58025 11.8905 6.55693 11.8781C6.53361 11.8656 6.51385 11.8474 6.4995 11.8252C6.4712 11.7832 6.4644 11.7266 6.4785 11.6699C6.5063 11.5859 6.5908 11.5215 6.6821 11.5137L15.418 11.4014C16.4531 11.3525 17.5781 10.5146 17.9717 9.48778L18.4707 8.18648C18.4922 8.13038 18.5 8.07368 18.4854 8.01848C17.9229 5.47218 15.6504 3.57318 12.9355 3.57318C10.4316 3.57318 8.3071 5.19088 7.5479 7.43458C7.0552 7.06878 6.4292 6.87208 5.7539 6.93558C4.5513 7.05458 3.5874 8.01858 3.4678 9.22118C3.4395 9.53118 3.4609 9.83398 3.5313 10.1152C1.5683 10.171 0 11.7754 0 13.752C0 13.9268 0.0142 14.1035 0.0352 14.2793C0.0493 14.3623 0.1196 14.4268 0.2041 14.4268H16.1855C16.2764 14.4268 16.3613 14.3623 16.3887 14.2715L16.5088 13.8447ZM19.2656 8.28128C19.1885 8.28128 19.1045 8.28128 19.0273 8.29248C18.9707 8.29248 18.9219 8.33398 18.9003 8.39008L18.5625 9.56448C18.415 10.0713 18.4707 10.5352 18.7168 10.8809C18.9424 11.1973 19.3223 11.3789 19.7793 11.4004L21.623 11.5137C21.6787 11.5137 21.7285 11.54 21.7559 11.584C21.7842 11.627 21.791 11.6914 21.7773 11.7402C21.749 11.8242 21.6641 11.8887 21.5733 11.8955L19.6523 12.0078C18.6113 12.0566 17.4941 12.8945 17.0996 13.9218L16.959 14.2803C16.9307 14.3516 16.9805 14.4219 17.0576 14.4219H23.6553C23.7324 14.4219 23.8027 14.373 23.8243 14.2959C23.9365 13.8877 24 13.4589 24 13.0156C24 10.4131 21.875 8.28858 19.2656 8.28858" fill="black"/>
</svg>