<svg width="24" height="17" viewBox="0 0 24 17" fill="none" xmlns="http://www.w3.org/2000/svg">
    <path d="M9.82994 4.59003C10.6469 4.59503 11.2669 4.82803 11.6719 5.28203C12.0549 5.71303 12.2389 6.33603 12.2189 7.13203L12.2049 7.19303C12.1969 7.21103 12.1849 7.22903 12.1699 7.24303C12.1399 7.27203 12.0989 7.28803 12.0569 7.28803H10.3979C10.2899 7.28803 10.1989 7.20003 10.1989 7.09303C10.1989 6.66903 10.0709 6.43503 9.80894 6.38303L9.68894 6.37203C9.34694 6.37203 9.12494 6.58303 9.11894 6.95103C9.11194 7.36103 9.34394 7.73403 10.0039 8.37403C10.8719 9.19003 11.2209 9.91303 11.2039 10.867C11.1769 12.411 10.1269 13.41 8.53094 13.41C7.71594 13.41 7.09294 13.191 6.67794 12.761C6.25794 12.324 6.06594 11.683 6.10594 10.855C6.10794 10.813 6.12494 10.772 6.15494 10.743C6.18494 10.714 6.22594 10.698 6.26694 10.698H7.98294C8.00694 10.699 8.02994 10.705 8.05194 10.715C8.07294 10.726 8.09194 10.741 8.10694 10.76C8.11994 10.775 8.12894 10.793 8.13494 10.813C8.13994 10.832 8.14094 10.853 8.13694 10.873C8.11794 11.171 8.17094 11.394 8.28794 11.518C8.36294 11.598 8.46894 11.639 8.59894 11.639C8.91594 11.639 9.10194 11.414 9.10894 11.024C9.11494 10.687 9.00694 10.39 8.42694 9.79203C7.67594 9.05803 7.00294 8.30003 7.02394 7.10803C7.03694 6.41603 7.31094 5.78403 7.79794 5.32703C8.31194 4.84503 9.01394 4.59003 9.82994 4.59003ZM4.04694 4.61803C4.79394 4.61203 5.38094 4.84203 5.78894 5.30303C6.22094 5.79003 6.43994 6.52403 6.44094 7.48503C6.43994 7.52703 6.42194 7.56703 6.39194 7.59703C6.36194 7.62603 6.32194 7.64303 6.27994 7.64303H4.47894C4.44794 7.64203 4.41694 7.62903 4.39494 7.60703C4.37294 7.58403 4.36094 7.55303 4.35994 7.52203C4.34594 6.89903 4.17194 6.57603 3.82794 6.53803L3.75694 6.53403C3.06694 6.53503 2.65994 7.47203 2.44394 7.99203C2.14194 8.71903 1.98794 9.50703 2.01794 10.293C2.03294 10.659 2.09194 11.173 2.43794 11.386C2.74594 11.575 3.18494 11.45 3.45094 11.24C3.71594 11.031 3.92994 10.669 4.01994 10.339C4.03294 10.293 4.03294 10.258 4.02094 10.241C4.01494 10.233 4.00294 10.229 3.98894 10.226L3.48494 10.222C3.46094 10.222 3.43594 10.216 3.41394 10.206C3.39194 10.196 3.37194 10.181 3.35594 10.162C3.34394 10.148 3.33494 10.13 3.33094 10.112C3.32694 10.093 3.32694 10.074 3.33094 10.056L3.64694 8.68203C3.66294 8.61103 3.72594 8.55803 3.80394 8.54803V8.54503H6.83894C6.84594 8.54503 6.85394 8.54503 6.85994 8.54603C6.93894 8.55603 6.99494 8.63003 6.99394 8.71003V8.71403L6.67794 10.085C6.66094 10.163 6.58294 10.22 6.49394 10.22H6.11294C6.09994 10.22 6.08594 10.225 6.07494 10.233C6.06394 10.241 6.05594 10.253 6.05194 10.266C5.69994 11.46 5.22294 12.282 4.59394 12.775C4.05794 13.195 3.39894 13.391 2.51694 13.391C1.72494 13.391 1.19094 13.136 0.737944 12.633C0.139944 11.967 -0.107056 10.879 0.0429437 9.56603C0.312944 7.10303 1.58894 4.61803 4.04694 4.61803ZM21.0159 4.75003C23.0259 4.75003 24.0299 5.66203 23.9989 7.46103C23.9619 9.56903 22.6779 11.119 20.7449 11.477C20.4699 11.527 20.1909 11.547 19.9119 11.545L18.9779 11.541C18.9629 11.541 18.9479 11.547 18.9369 11.558C18.9259 11.568 18.9199 11.583 18.9199 11.598C18.9199 11.608 18.9219 11.618 18.9279 11.627C18.9329 11.636 18.9409 11.643 18.9499 11.648L19.7439 12.062C19.8089 12.096 19.8349 12.153 19.8199 12.226C19.8149 12.249 19.6179 13.139 19.6129 13.159C19.5959 13.237 19.5329 13.282 19.4419 13.282H17.7389C17.7149 13.282 17.6899 13.277 17.6679 13.267C17.6459 13.257 17.6259 13.241 17.6099 13.223C17.5979 13.208 17.5889 13.191 17.5849 13.173C17.5799 13.155 17.5809 13.135 17.5849 13.116L19.4809 4.87503C19.4999 4.78903 19.5809 4.75103 19.6529 4.75103L21.0159 4.75003ZM17.2729 4.76203C17.2919 4.77003 17.3099 4.78103 17.3239 4.79503C17.3379 4.81003 17.3509 4.82803 17.3579 4.84703C17.3659 4.86603 17.3689 4.88603 17.3689 4.90603L17.3579 13.119C17.3609 13.138 17.3599 13.158 17.3549 13.177C17.3499 13.196 17.3399 13.213 17.3279 13.228C17.3129 13.245 17.2949 13.259 17.2739 13.268C17.2539 13.277 17.2319 13.282 17.2099 13.281H15.3969C15.3769 13.282 15.3559 13.277 15.3369 13.27C15.3179 13.262 15.2999 13.25 15.2859 13.236C15.2719 13.221 15.2599 13.204 15.2529 13.185C15.2449 13.166 15.2409 13.146 15.2409 13.125L15.2799 12.328C15.2819 12.241 15.2799 12.217 15.2289 12.211L15.1609 12.209H13.4469C13.3229 12.209 13.3139 12.22 13.2699 12.334L12.9139 13.191C12.8819 13.252 12.8179 13.281 12.7219 13.281H10.9269C10.8179 13.281 10.7399 13.173 10.7809 13.072L14.4989 4.87303C14.5239 4.82403 14.5619 4.75003 14.6479 4.75003H17.2139C17.2339 4.75003 17.2539 4.75403 17.2729 4.76203ZM15.4999 6.98503C15.4919 6.95303 15.4659 6.95603 15.4449 6.99803C15.4299 7.02803 15.4159 7.06003 15.4049 7.09103L14.1209 10.274C14.1139 10.294 14.1089 10.31 14.1049 10.322C14.1039 10.328 14.1029 10.335 14.1039 10.341C14.1049 10.347 14.1079 10.353 14.1109 10.358C14.1149 10.363 14.1199 10.367 14.1259 10.37C14.1309 10.373 14.1369 10.376 14.1429 10.376L15.2149 10.39C15.3339 10.38 15.3399 10.374 15.3519 10.253C15.3539 10.21 15.5059 7.02203 15.4999 6.98503ZM20.1119 6.58203C20.0969 6.58203 20.0829 6.58803 20.0719 6.59903C20.0609 6.60903 20.0549 6.62403 20.0539 6.63903C20.0539 6.64903 20.0569 6.65903 20.0619 6.66803C20.0679 6.67703 20.0749 6.68503 20.0839 6.69003C20.0969 6.69703 20.8689 7.10403 20.9259 7.13503C20.9679 7.15803 20.9689 7.19803 20.9549 7.26703C20.9479 7.29803 20.4149 9.64203 20.4159 9.64403C20.4189 9.64703 20.4349 9.65503 20.5149 9.65503H20.5509C21.4459 9.61903 21.9339 8.56103 21.9519 7.53403C21.9609 6.97903 21.7719 6.63803 21.4289 6.58803L21.3579 6.58203H20.1119Z" fill="black"/>
</svg>