<svg width="36" height="24" viewBox="0 0 36 24" fill="none" xmlns="http://www.w3.org/2000/svg">
    <g clip-path="url(#clip0_45_8)">
    <path d="M13.838 6L7.12 17.989H1L6.245 8.628C7.059 7.176 9.088 6 10.778 6H13.838ZM28.846 8.997C28.846 7.342 30.216 6 31.906 6C33.596 6 34.966 7.342 34.966 8.997C34.966 10.653 33.596 11.995 31.906 11.995C30.216 11.995 28.846 10.653 28.846 8.997ZM14.985 6H21.105L14.387 17.989H8.267L14.985 6ZM22.214 6H28.334L23.088 15.362C22.275 16.813 20.246 17.989 18.556 17.989H15.496L22.214 6Z" fill="#0B1012"/>
    </g>
    <defs>
    <clipPath id="clip0_45_8">
    <rect width="34" height="12" fill="white" transform="translate(1 6)"/>
    </clipPath>
    </defs>
</svg>