<svg xmlns="http://www.w3.org/2000/svg" width="48" height="49" fill="none" viewBox="0 0 48 49"><div id="in-page-channel-node-id" data-channel-name="in_page_channel_paFRmg"/><rect width="48" height="48" y=".5" fill="#000" rx="24"/><path fill="#8558DD" d="M7.47931 41.7575L6.04688 31.1211H7.49376L8.11573 36.6492L8.14463 36.9966H8.26023L8.30358 36.6492L8.96954 31.1211H10.0985L10.7645 36.6492L10.8078 36.9966H10.9234L10.9523 36.6492L11.5743 31.1211H13.0212L11.5888 41.7575H10.3731L9.64931 36.7214L9.56261 36.0994H9.50482L9.41811 36.7214L8.69436 41.7575H7.47868H7.47931Z"/><path fill="#8558DD" d="M16.6263 41.8728C16.1921 41.8728 15.8196 41.7717 15.5086 41.5687C15.1976 41.3658 14.9589 41.0912 14.7924 40.7438C14.6259 40.3964 14.543 40.0056 14.543 39.5715V33.3052C14.543 32.8661 14.6259 32.4747 14.7924 32.1291C14.9589 31.7842 15.1976 31.5103 15.5086 31.308C15.8196 31.1057 16.1921 31.0039 16.6263 31.0039C17.0604 31.0039 17.433 31.1051 17.7439 31.308C18.0549 31.5109 18.2937 31.7855 18.4602 32.1329C18.6266 32.4803 18.7096 32.8711 18.7096 33.3052V39.5715C18.7096 40.0056 18.6266 40.3964 18.4602 40.7438C18.2937 41.0912 18.0549 41.3658 17.7439 41.5687C17.433 41.7717 17.0604 41.8728 16.6263 41.8728ZM16.6263 40.353C16.8191 40.353 16.9542 40.2726 17.0315 40.1105C17.1088 39.9491 17.1471 39.7694 17.1471 39.5715V33.3052C17.1471 33.1073 17.1063 32.9276 17.024 32.7662C16.9417 32.6047 16.8091 32.5237 16.6263 32.5237C16.4434 32.5237 16.3165 32.6047 16.2317 32.7662C16.1475 32.9276 16.1048 33.1073 16.1048 33.3052V39.5715C16.1048 39.7694 16.1457 39.9491 16.228 40.1105C16.3096 40.272 16.4428 40.353 16.6256 40.353H16.6263Z"/><path fill="#8558DD" d="M20.5898 41.7575V31.1211H22.1529C23.0884 31.1211 23.7783 31.3806 24.2224 31.8989C24.666 32.4172 24.8884 33.1805 24.8884 34.1889C24.8884 34.787 24.7835 35.3047 24.5736 35.7413C24.3638 36.178 24.1094 36.4971 23.8103 36.7L24.8739 41.7582H23.3108L22.4281 37.2718H22.1529V41.7582H20.5898V41.7575ZM22.1529 35.8242C22.4426 35.8242 22.6713 35.7602 22.8403 35.6326C23.0093 35.5051 23.1299 35.3229 23.2021 35.086C23.2744 34.8498 23.3108 34.5696 23.3108 34.2467C23.3108 33.7403 23.2279 33.3508 23.0614 33.0781C22.8949 32.8055 22.5921 32.6691 22.1536 32.6691V35.8242H22.1529Z"/><path fill="#8558DD" d="M26.5547 41.7575V31.1211H28.1178V40.3107H30.1873V41.7575H26.5547Z"/><path fill="#8558DD" d="M31.6172 41.7575V31.1211H33.2092C33.7105 31.1211 34.1352 31.2034 34.4827 31.3674C34.8301 31.5314 35.1097 31.8109 35.322 32.2067C35.5344 32.6025 35.6877 33.1453 35.7813 33.8345C35.8755 34.5244 35.9227 35.3951 35.9227 36.4469C35.9227 37.4986 35.8755 38.375 35.7813 39.0629C35.6871 39.7509 35.5338 40.2905 35.322 40.6838C35.1097 41.0771 34.8301 41.3542 34.4827 41.5163C34.1352 41.6777 33.7105 41.7588 33.2092 41.7588H31.6172V41.7575ZM33.1803 40.1944C33.566 40.1944 33.8387 40.0424 33.9977 39.7383C34.1566 39.4342 34.2534 39.0001 34.2873 38.4359C34.3212 37.8717 34.3382 37.2014 34.3382 36.4242C34.3382 35.6471 34.3212 34.966 34.2873 34.4088C34.2534 33.8515 34.156 33.4249 33.9945 33.1278C33.8331 32.8312 33.5616 32.6829 33.1803 32.6829V40.1938V40.1944Z"/><path fill="#fff" d="M39.7679 41.8728C39.44 41.8728 39.1566 41.8207 38.9179 41.717C38.6791 41.6133 38.4812 41.4663 38.3248 41.2753C38.1677 41.085 38.044 40.8582 37.9522 40.5949C37.8605 40.3323 37.7952 40.0389 37.7568 39.716C37.7179 39.3931 37.699 39.05 37.699 38.6888H39.2333C39.2333 38.9973 39.2427 39.2906 39.2622 39.5677C39.2816 39.8454 39.3294 40.0697 39.4067 40.2406C39.4839 40.4121 39.6046 40.4975 39.7685 40.4975C39.9325 40.4975 40.0544 40.4316 40.1342 40.2984C40.214 40.1658 40.2667 39.9968 40.2931 39.792C40.3195 39.5872 40.3327 39.3736 40.3327 39.1518C40.3327 38.5732 40.2931 38.1303 40.2133 37.8243C40.1336 37.5183 39.9941 37.3022 39.7937 37.1766C39.5932 37.0515 39.3099 36.9768 38.9436 36.9523V35.6499C39.3099 35.6304 39.5826 35.5632 39.761 35.447C39.9394 35.3314 40.0575 35.1391 40.1153 34.8715C40.1731 34.6038 40.202 34.2313 40.202 33.7538C40.202 33.5176 40.1939 33.2945 40.1769 33.0847C40.1599 32.8749 40.1178 32.7046 40.05 32.5746C39.9821 32.4445 39.8691 32.3792 39.7101 32.3792C39.5606 32.3792 39.4469 32.4646 39.3702 32.6361C39.2929 32.8076 39.2408 33.0307 39.2144 33.3052C39.188 33.5804 39.1748 33.8744 39.1748 34.1879H37.6406C37.6406 33.7249 37.672 33.2989 37.7349 32.9107C37.7977 32.5224 37.9057 32.1857 38.0603 31.9011C38.2149 31.6165 38.426 31.3959 38.6936 31.2389C38.9612 31.0824 39.3005 31.0039 39.7101 31.0039C40.0381 31.0039 40.3289 31.0655 40.5821 31.1886C40.8353 31.3118 41.0477 31.4814 41.2192 31.6988C41.3901 31.9161 41.5195 32.1668 41.6062 32.4514C41.6929 32.736 41.7362 33.0401 41.7362 33.363C41.7362 33.8455 41.7023 34.2809 41.6351 34.6692C41.5672 35.0574 41.4673 35.3854 41.3348 35.653C41.2022 35.9207 41.032 36.1223 40.8246 36.2574C41.167 36.5181 41.4265 36.892 41.6024 37.3789C41.7783 37.8664 41.8663 38.4186 41.8663 39.0362C41.8663 39.5237 41.7878 39.983 41.6313 40.4146C41.4743 40.8462 41.2418 41.1974 40.9333 41.4676C40.6249 41.7377 40.236 41.8728 39.7685 41.8728H39.7679Z"/><path fill="#fff" d="M34.1166 17.1791L23.9531 7.01562L13.7896 17.1791L23.9531 27.3426L34.1166 17.1791Z"/><path fill="#542B53" d="M25.6398 8.69141L17.5817 16.7495L17.5547 17.4079L19.2353 19.0885L25.5028 12.8216L26.9045 14.2232L20.98 20.1471L20.9523 20.8055L22.6335 22.4867L28.9004 16.2192L30.3021 17.6209L22.2723 25.6507L23.9586 27.3375L34.1225 17.1742L25.6398 8.69141Z"/><path fill="url(#paint0_radial_1754_3368)" d="M25.6362 8.69141L17.5781 16.7495L19.2593 18.4301L25.5262 12.1632L27.2433 13.8802L20.9764 20.1471L22.657 21.8277L28.9245 15.5608L30.6472 17.2835L22.2744 25.6563L23.955 27.3375L34.1189 17.1742L25.6362 8.69141Z"/><defs><radialGradient id="paint0_radial_1754_3368" cx="0" cy="0" r="1" gradientTransform="translate(22.1845 20.5379) scale(8.98412 8.98412)" gradientUnits="userSpaceOnUse"><stop stop-color="#AE508E"/><stop offset="1" stop-color="#8558DD"/></radialGradient></defs></svg>