<svg width="122" height="24" viewBox="0 0 122 24" fill="none" xmlns="http://www.w3.org/2000/svg">
    <g clip-path="url(#clip0_4_8)">
    <path d="M0.894141 7.08776L2.05614 5.35076C2.16314 5.19276 2.23114 5.18876 2.34914 5.24476C4.90514 6.72076 7.19714 6.92976 9.56114 5.90676C11.9111 4.88776 13.3241 3.08676 14.0061 0.247756C14.0781 -0.00824395 14.1721 -0.00624393 14.2371 0.00275607L16.2671 0.442756C16.6101 0.528756 16.5971 0.622756 16.5891 0.692756C16.1391 4.02076 13.8341 6.94376 10.5701 8.32476C7.25314 9.75076 3.65014 9.43676 0.930141 7.48476C0.874141 7.43676 0.748141 7.30776 0.898141 7.08776H0.895141H0.894141ZM11.0091 23.8858L13.0901 23.9998C13.4401 24.0058 13.4501 23.9128 13.4591 23.8438C13.9091 20.5158 12.4601 17.0858 9.68014 14.8908C6.86014 12.6348 3.30214 11.9808 0.161141 13.1418C0.0961407 13.1748 -0.0608593 13.2648 0.0251407 13.5148L0.684141 15.4988C0.747141 15.6788 0.809141 15.7008 0.938141 15.6778C3.79314 14.9338 6.05814 15.3388 8.06614 16.9528C10.0621 18.5588 10.9461 20.6688 10.8501 23.5968C10.8531 23.8548 10.9431 23.8778 11.0081 23.8868L11.0091 23.8858ZM12.3441 10.0178C12.2514 10.0047 12.1578 9.99799 12.0641 9.99776C11.6421 9.99776 11.2441 10.1298 10.9181 10.3778C10.7186 10.5325 10.5517 10.7253 10.4272 10.945C10.3028 11.1648 10.2232 11.407 10.1931 11.6578C10.1231 12.1658 10.2531 12.6678 10.5551 13.0688C10.8601 13.4758 11.3141 13.7388 11.8321 13.8088C12.3346 13.8756 12.843 13.7405 13.2461 13.4331C13.6491 13.1257 13.9138 12.671 13.9821 12.1688C14.0187 11.9194 14.005 11.6652 13.942 11.4212C13.8789 11.1771 13.7677 10.9481 13.615 10.7477C13.4622 10.5472 13.2709 10.3793 13.0523 10.2538C12.8337 10.1282 12.5923 10.0477 12.3421 10.0168L12.3441 10.0178ZM22.7361 6.52476L21.7701 4.67476C21.6331 4.37076 21.5231 4.40076 21.4101 4.43876C18.3211 5.77076 16.1901 8.69876 15.7071 12.2768C15.2241 15.8568 16.5041 19.2498 19.1331 21.3518C19.1921 21.4038 19.2501 21.4218 19.3151 21.4168C19.3935 21.4081 19.4654 21.369 19.5151 21.3078L20.8731 19.6798C20.9981 19.5228 20.9441 19.4418 20.8791 19.3738C18.7491 17.2778 17.9531 15.1938 18.2991 12.6258C18.6481 10.0428 20.0091 8.19276 22.5851 6.79876C22.7891 6.67576 22.7551 6.57076 22.7361 6.52276V6.52476Z" fill="black"/>
    </g>
    <rect x="28" y="2" width="94" height="20" fill="black"/>
    <path d="M29.0938 6.89062H30.7422V11.3984H36.5V6.89062H38.1406V18H36.5V13.0391H30.7422V18H29.0938V6.89062ZM40.3281 6.89062H48.9453V8.53125H41.9766V16.3516H48.9453V18H40.3281V6.89062ZM42.9141 11.3984H48.9453V13.0391H42.9141V11.3984ZM54.2266 12.4453L50.2031 6.89062H52.2188L55.2578 11.1016L58.2891 6.89062H60.2969L56.2812 12.4453L60.2969 18H58.2891L55.2578 13.7812L52.2188 18H50.2031L54.2266 12.4453ZM61.7031 6.89062H63.3516V18H61.7031V6.89062ZM70.0781 9.57812C70.0781 9.08333 70.2005 8.63281 70.4453 8.22656C70.6953 7.82031 71.0286 7.4974 71.4453 7.25781C71.8672 7.01302 72.3307 6.89062 72.8359 6.89062H78.5859V8.53125H72.8359C72.5339 8.53125 72.2734 8.63802 72.0547 8.85156C71.8359 9.0651 71.7266 9.32292 71.7266 9.625V10.3906C71.7266 10.6667 71.8359 10.9036 72.0547 11.1016C72.2734 11.2995 72.5339 11.3984 72.8359 11.3984H76.375C76.8854 11.3984 77.349 11.5208 77.7656 11.7656C78.1823 12.0052 78.513 12.3307 78.7578 12.7422C79.0078 13.1484 79.1328 13.599 79.1328 14.0938V15.3047C79.1328 15.7995 79.0078 16.2526 78.7578 16.6641C78.513 17.0703 78.1823 17.3958 77.7656 17.6406C77.349 17.8802 76.8854 18 76.375 18H70.0859V16.3516H76.375C76.6823 16.3516 76.9427 16.25 77.1562 16.0469C77.375 15.8385 77.4844 15.5885 77.4844 15.2969V14.1016C77.4844 13.8099 77.375 13.5599 77.1562 13.3516C76.9427 13.1432 76.6823 13.0391 76.375 13.0391H72.8359C72.3307 13.0391 71.8672 12.9219 71.4453 12.6875C71.0286 12.4479 70.6953 12.1276 70.4453 11.7266C70.2005 11.3255 70.0781 10.8828 70.0781 10.3984V9.57812ZM81.1719 6.89062H87.0469C87.5521 6.89062 88.0104 7.01562 88.4219 7.26562C88.8385 7.51042 89.1693 7.83854 89.4141 8.25C89.6641 8.66146 89.7891 9.11979 89.7891 9.625V10.7344C89.7891 11.2292 89.6641 11.6823 89.4141 12.0938C89.1693 12.5 88.8385 12.8255 88.4219 13.0703C88.0104 13.3099 87.5521 13.4297 87.0469 13.4297H83.7578V11.7891H87.0469C87.3542 11.7891 87.6146 11.6849 87.8281 11.4766C88.0417 11.2682 88.1484 11.013 88.1484 10.7109V9.625C88.1484 9.32292 88.0417 9.0651 87.8281 8.85156C87.6146 8.63802 87.3542 8.53125 87.0469 8.53125H82.8203V18H81.1719V6.89062ZM94.1172 6.89062H96.1719L100.148 18H98.3906L97.1797 14.6562H94.0781L94.6719 13.0156H96.5859L95.1484 9.04688L91.8984 18H90.1406L94.1172 6.89062ZM101.406 10.0156C101.406 9.4375 101.549 8.91406 101.836 8.44531C102.122 7.97135 102.505 7.59375 102.984 7.3125C103.464 7.03125 103.995 6.89062 104.578 6.89062H110.398V8.53125H104.578C104.156 8.53125 103.797 8.67708 103.5 8.96875C103.203 9.25521 103.055 9.60417 103.055 10.0156V14.9062C103.055 15.3021 103.203 15.6432 103.5 15.9297C103.797 16.2109 104.156 16.3516 104.578 16.3516H110.398V18H104.578C103.995 18 103.464 17.862 102.984 17.5859C102.505 17.3099 102.122 16.9401 101.836 16.4766C101.549 16.0078 101.406 15.4922 101.406 14.9297V10.0156ZM112.359 6.89062H120.977V8.53125H114.008V16.3516H120.977V18H112.359V6.89062ZM114.945 11.3984H120.977V13.0391H114.945V11.3984Z" fill="white"/>
    <defs>
    <clipPath id="clip0_4_8">
    <rect width="24" height="24" rx="4" fill="white"/>
    </clipPath>
    </defs>
</svg>