<svg xmlns="http://www.w3.org/2000/svg" width="116" height="24" fill="none" viewBox="0 0 116 24"><g clip-path="url(#clip0_4_8)"><path fill="#000" d="M0.894141 7.08776L2.05614 5.35076C2.16314 5.19276 2.23114 5.18876 2.34914 5.24476C4.90514 6.72076 7.19714 6.92976 9.56114 5.90676C11.9111 4.88776 13.3241 3.08676 14.0061 0.247756C14.0781 -0.00824395 14.1721 -0.00624393 14.2371 0.00275607L16.2671 0.442756C16.6101 0.528756 16.5971 0.622756 16.5891 0.692756C16.1391 4.02076 13.8341 6.94376 10.5701 8.32476C7.25314 9.75076 3.65014 9.43676 0.930141 7.48476C0.874141 7.43676 0.748141 7.30776 0.898141 7.08776H0.895141H0.894141ZM11.0091 23.8858L13.0901 23.9998C13.4401 24.0058 13.4501 23.9128 13.4591 23.8438C13.9091 20.5158 12.4601 17.0858 9.68014 14.8908C6.86014 12.6348 3.30214 11.9808 0.161141 13.1418C0.0961407 13.1748 -0.0608593 13.2648 0.0251407 13.5148L0.684141 15.4988C0.747141 15.6788 0.809141 15.7008 0.938141 15.6778C3.79314 14.9338 6.05814 15.3388 8.06614 16.9528C10.0621 18.5588 10.9461 20.6688 10.8501 23.5968C10.8531 23.8548 10.9431 23.8778 11.0081 23.8868L11.0091 23.8858ZM12.3441 10.0178C12.2514 10.0047 12.1578 9.99799 12.0641 9.99776C11.6421 9.99776 11.2441 10.1298 10.9181 10.3778C10.7186 10.5325 10.5517 10.7253 10.4272 10.945C10.3028 11.1648 10.2232 11.407 10.1931 11.6578C10.1231 12.1658 10.2531 12.6678 10.5551 13.0688C10.8601 13.4758 11.3141 13.7388 11.8321 13.8088C12.3346 13.8756 12.843 13.7405 13.2461 13.4331C13.6491 13.1257 13.9138 12.671 13.9821 12.1688C14.0187 11.9194 14.005 11.6652 13.942 11.4212C13.8789 11.1771 13.7677 10.9481 13.615 10.7477C13.4622 10.5472 13.2709 10.3793 13.0523 10.2538C12.8337 10.1282 12.5923 10.0477 12.3421 10.0168L12.3441 10.0178ZM22.7361 6.52476L21.7701 4.67476C21.6331 4.37076 21.5231 4.40076 21.4101 4.43876C18.3211 5.77076 16.1901 8.69876 15.7071 12.2768C15.2241 15.8568 16.5041 19.2498 19.1331 21.3518C19.1921 21.4038 19.2501 21.4218 19.3151 21.4168C19.3935 21.4081 19.4654 21.369 19.5151 21.3078L20.8731 19.6798C20.9981 19.5228 20.9441 19.4418 20.8791 19.3738C18.7491 17.2778 17.9531 15.1938 18.2991 12.6258C18.6481 10.0428 20.0091 8.19276 22.5851 6.79876C22.7891 6.67576 22.7551 6.57076 22.7361 6.52276V6.52476Z"/></g><path fill="#000" d="M27.808 20.408V2.328H40.224V20.408H27.808ZM35.584 17H39.376V15.976H38.064V7.624H39.376V6.6H35.584V7.624H36.896V11.208H31.12V7.624H32.432V6.6H28.64V7.624H29.952V15.976H28.64V17H32.432V15.976H31.12V12.2H36.896V15.976H35.584V17ZM39.8392 20.408V2.328H49.5673V20.408H39.8392ZM40.6713 17H48.4153L48.7193 14.056L47.7113 13.944L47.3913 15.976H43.1513V12.232H48.0633V11.208H43.1513V7.624H47.2473L47.5673 9.656L48.5913 9.544L48.2713 6.6H40.6713V7.624H41.9833V15.976H40.6713V17ZM49.183 20.408V2.328H59.631V20.408H49.183ZM55.711 17H59.343V15.976H58.351L55.007 11.608L58.031 7.624H59.183V6.6H55.663V7.624H56.719L54.415 10.824L51.999 7.624H53.167V6.6H49.615V7.624H50.655L53.743 11.624L50.511 15.976H49.439V17H53.023V15.976H51.791L54.335 12.424L56.991 15.976H55.711V17ZM59.2455 20.408V2.328H64.7175V20.408H59.2455ZM60.0775 17H63.8695V15.976H62.5735V7.624H63.8695V6.6H60.0775V7.624H61.3895V15.976H60.0775V17ZM64.2912 20.408V2.328H68.7873V20.408H64.2912ZM68.3236 20.408V2.328H77.1716V20.408H68.3236ZM76.3236 14.088C76.3236 13.2987 76.1316 12.7067 75.7476 12.312C75.3743 11.9067 74.921 11.624 74.3876 11.464C73.865 11.2933 73.369 11.1547 72.8996 11.048C72.313 10.9093 71.7796 10.728 71.2996 10.504C70.8196 10.28 70.5796 9.84267 70.5796 9.192C70.5796 8.63733 70.777 8.216 71.1716 7.928C71.577 7.62933 72.105 7.48 72.7556 7.48C73.065 7.48 73.3903 7.512 73.7316 7.576C74.073 7.62933 74.409 7.74133 74.7396 7.912L74.8996 9.464L75.8596 9.368L75.7636 7.304C75.433 7.048 74.9743 6.84 74.3876 6.68C73.801 6.52 73.2196 6.44 72.6436 6.44C71.7476 6.44 70.969 6.67467 70.3076 7.144C69.657 7.61333 69.3316 8.33867 69.3316 9.32C69.3316 10.0027 69.4916 10.5253 69.8116 10.888C70.1316 11.24 70.5316 11.5013 71.0116 11.672C71.4916 11.832 71.977 11.9653 72.4676 12.072C73.1076 12.2213 73.6996 12.4187 74.2436 12.664C74.7876 12.8987 75.0596 13.4107 75.0596 14.2C75.0596 14.904 74.809 15.4053 74.3076 15.704C73.817 15.992 73.2303 16.136 72.5476 16.136C72.1636 16.136 71.7956 16.104 71.4436 16.04C71.0916 15.976 70.7396 15.8533 70.3876 15.672L70.4516 14.36L69.4916 14.264L69.2676 16.312C70.0463 16.8773 71.161 17.16 72.6116 17.16C73.6676 17.16 74.5476 16.8987 75.2516 16.376C75.9663 15.8533 76.3236 15.0907 76.3236 14.088ZM76.7924 20.408V2.328H86.2964V20.408H76.7924ZM85.6564 9.784C85.6564 8.92 85.3737 8.17333 84.8084 7.544C84.2537 6.91467 83.331 6.6 82.0404 6.6H77.6244V7.624H78.9364V15.976H77.6244V17H81.8964V15.976H80.1044V13.128H82.1364C83.1604 13.128 84.003 12.8453 84.6644 12.28C85.3257 11.704 85.6564 10.872 85.6564 9.784ZM84.4084 9.816C84.4084 11.3413 83.603 12.104 81.9924 12.104H80.1044V7.624H81.9444C82.7977 7.624 83.4217 7.82133 83.8164 8.216C84.211 8.61067 84.4084 9.144 84.4084 9.816ZM85.9174 2.328H96.2534V15.976H94.9894L91.5814 6.6H88.6054V7.624H90.2694L87.1814 15.976H85.9174V2.328ZM91.1654 8.296L92.8614 13.064H89.3574L91.0854 8.296H91.1654ZM96.2534 20.408H85.9174V17H89.5654V15.976H88.2854L89.0214 13.976H93.1814L93.8854 15.976H92.6534V17H96.2534V20.408ZM95.8705 20.408V2.328H106.527V20.408H95.8705ZM105.231 16.2L105.503 14.2L104.51 14.104L104.207 15.64C103.588 15.9493 102.825 16.104 101.919 16.104C100.681 16.104 99.6998 15.7147 98.9745 14.936C98.2598 14.1467 97.9025 13.1067 97.9025 11.816C97.9025 10.5573 98.2492 9.52267 98.9425 8.712C99.6465 7.90133 100.569 7.496 101.711 7.496C102.297 7.496 102.788 7.56533 103.183 7.704C103.577 7.832 103.945 8.008 104.286 8.232L104.575 9.752L105.583 9.656L105.295 7.656C104.868 7.29333 104.361 7 103.775 6.776C103.199 6.552 102.479 6.44 101.615 6.44C100.601 6.44 99.7265 6.69067 98.9905 7.192C98.2545 7.69333 97.6838 8.36 97.2785 9.192C96.8732 10.0133 96.6705 10.904 96.6705 11.864C96.6705 13.3787 97.1398 14.6427 98.0785 15.656C99.0172 16.6587 100.244 17.16 101.759 17.16C103.241 17.16 104.399 16.84 105.231 16.2ZM106.136 20.408V2.328H115.864V20.408H106.136ZM106.968 17H114.712L115.016 14.056L114.008 13.944L113.688 15.976H109.448V12.232H114.36V11.208H109.448V7.624H113.544L113.864 9.656L114.888 9.544L114.568 6.6H106.968V7.624H108.28V15.976H106.968V17Z"/><defs><clipPath id="clip0_4_8"><rect width="24" height="24" fill="#fff" rx="4"/></clipPath></defs></svg>